<svg xmlns="http://www.w3.org/2000/svg" fill="black" xmlns:xlink="http://www.w3.org/1999/xlink" width="17" height="17" viewBox="0 0 32 32" class="star-svg-reviews"><linearGradient id="grad1_7945566322906"><stop offset="100%" stop-color="black"></stop><stop offset="0%" stop-color="#c4c0c0"></stop></linearGradient><path fill="url(#grad1_7945566322906)" d="M20.388,10.918L32,12.118l-8.735,7.749L25.914,31.4l-9.893-6.088L6.127,31.4l2.695-11.533L0,12.118 l11.547-1.2L16.026,0.6L20.388,10.918z"></path></svg><svg xmlns="http://www.w3.org/2000/svg" xmlns:xlink="http://www.w3.org/1999/xlink" width="17" height="17" viewBox="0 0 32 32" class="star-svg-reviews"><linearGradient id="grad2_7945566322906"><stop offset="100%" stop-color="black"></stop><stop offset="0%" stop-color="#c4c0c0"></stop></linearGradient><path fill="url(#grad2_7945566322906)" d="M20.388,10.918L32,12.118l-8.735,7.749L25.914,31.4l-9.893-6.088L6.127,31.4l2.695-11.533L0,12.118 l11.547-1.2L16.026,0.6L20.388,10.918z"></path></svg><svg xmlns="http://www.w3.org/2000/svg" xmlns:xlink="http://www.w3.org/1999/xlink" width="17" height="17" viewBox="0 0 32 32" class="star-svg-reviews"><linearGradient id="grad3_7945566322906"><stop offset="100%" stop-color="black"></stop><stop offset="0%" stop-color="#c4c0c0"></stop></linearGradient><path fill="url(#grad3_7945566322906)" d="M20.388,10.918L32,12.118l-8.735,7.749L25.914,31.4l-9.893-6.088L6.127,31.4l2.695-11.533L0,12.118 l11.547-1.2L16.026,0.6L20.388,10.918z"></path></svg><svg xmlns="http://www.w3.org/2000/svg" xmlns:xlink="http://www.w3.org/1999/xlink" width="17" height="17" viewBox="0 0 32 32" class="star-svg-reviews"><linearGradient id="grad4_7945566322906"><stop offset="100%" stop-color="black"></stop><stop offset="0%" stop-color="#c4c0c0"></stop></linearGradient><path fill="url(#grad4_7945566322906)" d="M20.388,10.918L32,12.118l-8.735,7.749L25.914,31.4l-9.893-6.088L6.127,31.4l2.695-11.533L0,12.118 l11.547-1.2L16.026,0.6L20.388,10.918z"></path></svg><svg xmlns="http://www.w3.org/2000/svg" xmlns:xlink="http://www.w3.org/1999/xlink" width="17" height="17" viewBox="0 0 32 32" class="star-svg-reviews"><linearGradient id="grad5_7945566322906"><stop offset="90.00000000000003%" stop-color="black"></stop><stop offset="0%" stop-color="#c4c0c0"></stop></linearGradient><path fill="url(#grad5_7945566322906)" d="M20.388,10.918L32,12.118l-8.735,7.749L25.914,31.4l-9.893-6.088L6.127,31.4l2.695-11.533L0,12.118 l11.547-1.2L16.026,0.6L20.388,10.918z"></path></svg>